<svg width="14" height="18" viewBox="0 0 14 18" fill="none" xmlns="http://www.w3.org/2000/svg">
<rect x="5" width="1" height="1" fill="black"/>
<rect x="6" width="1" height="1" fill="black"/>
<rect x="7" width="1" height="1" fill="black"/>
<rect x="8" width="1" height="1" fill="black"/>
<rect x="3" y="1" width="1" height="1" fill="black"/>
<rect x="4" y="1" width="1" height="1" fill="black"/>
<rect x="5" y="1" width="1" height="1" fill="#4F7BFF"/>
<rect x="6" y="1" width="1" height="1" fill="#4F7BFF"/>
<rect x="7" y="1" width="1" height="1" fill="#4F7BFF"/>
<rect x="8" y="1" width="1" height="1" fill="#4F7BFF"/>
<rect x="9" y="1" width="1" height="1" fill="black"/>
<rect x="10" y="1" width="1" height="1" fill="black"/>
<rect x="2" y="2" width="1" height="1" fill="black"/>
<rect x="3" y="2" width="1" height="1" fill="#4F7BFF"/>
<rect x="4" y="2" width="1" height="1" fill="#4F7BFF"/>
<rect x="5" y="2" width="1" height="1" fill="#4F7BFF"/>
<rect x="6" y="2" width="1" height="1" fill="#4F7BFF"/>
<rect x="7" y="2" width="1" height="1" fill="#4F7BFF"/>
<rect x="8" y="2" width="1" height="1" fill="#4F7BFF"/>
<rect x="9" y="2" width="1" height="1" fill="#4F7BFF"/>
<rect x="10" y="2" width="1" height="1" fill="#4F7BFF"/>
<rect x="11" y="2" width="1" height="1" fill="black"/>
<rect x="2" y="3" width="1" height="1" fill="black"/>
<rect x="3" y="3" width="1" height="1" fill="#5576FF"/>
<rect x="4" y="3" width="1" height="1" fill="#5576FF"/>
<rect x="5" y="3" width="1" height="1" fill="#5576FF"/>
<rect x="6" y="3" width="1" height="1" fill="#5576FF"/>
<rect x="7" y="3" width="1" height="1" fill="#5576FF"/>
<rect x="8" y="3" width="1" height="1" fill="#5576FF"/>
<rect x="9" y="3" width="1" height="1" fill="#5576FF"/>
<rect x="10" y="3" width="1" height="1" fill="#5576FF"/>
<rect x="11" y="3" width="1" height="1" fill="black"/>
<rect x="1" y="4" width="1" height="1" fill="black"/>
<rect x="2" y="4" width="1" height="1" fill="#5772FE"/>
<rect x="3" y="4" width="1" height="1" fill="#5772FE"/>
<rect x="4" y="4" width="1" height="1" fill="#5772FE"/>
<rect x="5" y="4" width="1" height="1" fill="#5772FE"/>
<rect x="6" y="4" width="1" height="1" fill="#5772FE"/>
<rect x="7" y="4" width="1" height="1" fill="#5772FE"/>
<rect x="8" y="4" width="1" height="1" fill="#5772FE"/>
<rect x="9" y="4" width="1" height="1" fill="white"/>
<rect x="10" y="4" width="1" height="1" fill="#5772FE"/>
<rect x="11" y="4" width="1" height="1" fill="#5772FE"/>
<rect x="12" y="4" width="1" height="1" fill="black"/>
<rect x="1" y="5" width="1" height="1" fill="black"/>
<rect x="2" y="5" width="1" height="1" fill="#5870FF"/>
<rect x="3" y="5" width="1" height="1" fill="#5870FF"/>
<rect x="4" y="5" width="1" height="1" fill="#5870FF"/>
<rect x="5" y="5" width="1" height="1" fill="#5870FF"/>
<rect x="6" y="5" width="1" height="1" fill="#5870FF"/>
<rect x="7" y="5" width="1" height="1" fill="#5870FF"/>
<rect x="8" y="5" width="1" height="1" fill="#5870FF"/>
<rect x="9" y="5" width="1" height="1" fill="#5870FF"/>
<rect x="10" y="5" width="1" height="1" fill="white"/>
<rect x="11" y="5" width="1" height="1" fill="#5870FF"/>
<rect x="12" y="5" width="1" height="1" fill="black"/>
<rect y="6" width="1" height="1" fill="black"/>
<rect x="1" y="6" width="1" height="1" fill="#5C6DFF"/>
<rect x="2" y="6" width="1" height="1" fill="#5C6DFF"/>
<rect x="3" y="6" width="1" height="1" fill="#5C6DFF"/>
<rect x="4" y="6" width="1" height="1" fill="#5C6DFF"/>
<rect x="5" y="6" width="1" height="1" fill="#5C6DFF"/>
<rect x="6" y="6" width="1" height="1" fill="#5C6DFF"/>
<rect x="7" y="6" width="1" height="1" fill="#5C6DFF"/>
<rect x="8" y="6" width="1" height="1" fill="#5C6DFF"/>
<rect x="9" y="6" width="1" height="1" fill="#5C6DFF"/>
<rect x="10" y="6" width="1" height="1" fill="#5C6DFF"/>
<rect x="11" y="6" width="1" height="1" fill="#5C6DFF"/>
<rect x="12" y="6" width="1" height="1" fill="#5C6DFF"/>
<rect x="13" y="6" width="1" height="1" fill="black"/>
<rect y="7" width="1" height="1" fill="black"/>
<rect x="1" y="7" width="1" height="1" fill="#6266FF"/>
<rect x="2" y="7" width="1" height="1" fill="#6266FF"/>
<rect x="3" y="7" width="1" height="1" fill="#6266FF"/>
<rect x="4" y="7" width="1" height="1" fill="#6266FF"/>
<rect x="5" y="7" width="1" height="1" fill="#6266FF"/>
<rect x="6" y="7" width="1" height="1" fill="#6266FF"/>
<rect x="7" y="7" width="1" height="1" fill="#6266FF"/>
<rect x="8" y="7" width="1" height="1" fill="#6266FF"/>
<rect x="9" y="7" width="1" height="1" fill="#6266FF"/>
<rect x="10" y="7" width="1" height="1" fill="#6266FF"/>
<rect x="11" y="7" width="1" height="1" fill="#6266FF"/>
<rect x="12" y="7" width="1" height="1" fill="#6266FF"/>
<rect x="13" y="7" width="1" height="1" fill="black"/>
<rect y="8" width="1" height="1" fill="black"/>
<rect x="1" y="8" width="1" height="1" fill="#6266FF"/>
<rect x="2" y="8" width="1" height="1" fill="#6266FF"/>
<rect x="3" y="8" width="1" height="1" fill="#6266FF"/>
<rect x="4" y="8" width="1" height="1" fill="#6266FF"/>
<rect x="5" y="8" width="1" height="1" fill="#6266FF"/>
<rect x="6" y="8" width="1" height="1" fill="#6266FF"/>
<rect x="7" y="8" width="1" height="1" fill="#6266FF"/>
<rect x="8" y="8" width="1" height="1" fill="#6266FF"/>
<rect x="9" y="8" width="1" height="1" fill="#6266FF"/>
<rect x="10" y="8" width="1" height="1" fill="#6266FF"/>
<rect x="11" y="8" width="1" height="1" fill="#6266FF"/>
<rect x="12" y="8" width="1" height="1" fill="#6266FF"/>
<rect x="13" y="8" width="1" height="1" fill="black"/>
<rect y="9" width="1" height="1" fill="black"/>
<rect x="1" y="9" width="1" height="1" fill="#6761FF"/>
<rect x="2" y="9" width="1" height="1" fill="#6761FF"/>
<rect x="3" y="9" width="1" height="1" fill="#6761FF"/>
<rect x="4" y="9" width="1" height="1" fill="#6761FF"/>
<rect x="5" y="9" width="1" height="1" fill="#6761FF"/>
<rect x="6" y="9" width="1" height="1" fill="#6761FF"/>
<rect x="7" y="9" width="1" height="1" fill="#6761FF"/>
<rect x="8" y="9" width="1" height="1" fill="#6761FF"/>
<rect x="9" y="9" width="1" height="1" fill="#6761FF"/>
<rect x="10" y="9" width="1" height="1" fill="#6761FF"/>
<rect x="11" y="9" width="1" height="1" fill="#6761FF"/>
<rect x="12" y="9" width="1" height="1" fill="#6761FF"/>
<rect x="13" y="9" width="1" height="1" fill="black"/>
<rect y="10" width="1" height="1" fill="black"/>
<rect x="1" y="10" width="1" height="1" fill="#6A5CFF"/>
<rect x="2" y="10" width="1" height="1" fill="#6A5CFF"/>
<rect x="3" y="10" width="1" height="1" fill="#6A5CFF"/>
<rect x="4" y="10" width="1" height="1" fill="#6A5CFF"/>
<rect x="5" y="10" width="1" height="1" fill="#6A5CFF"/>
<rect x="6" y="10" width="1" height="1" fill="#6A5CFF"/>
<rect x="7" y="10" width="1" height="1" fill="#6A5CFF"/>
<rect x="8" y="10" width="1" height="1" fill="#6A5CFF"/>
<rect x="9" y="10" width="1" height="1" fill="#6A5CFF"/>
<rect x="10" y="10" width="1" height="1" fill="#6A5CFF"/>
<rect x="11" y="10" width="1" height="1" fill="#6A5CFF"/>
<rect x="12" y="10" width="1" height="1" fill="#6A5CFF"/>
<rect x="13" y="10" width="1" height="1" fill="black"/>
<rect y="11" width="1" height="1" fill="black"/>
<rect x="1" y="11" width="1" height="1" fill="#7457FF"/>
<rect x="2" y="11" width="1" height="1" fill="#7457FF"/>
<rect x="3" y="11" width="1" height="1" fill="#7457FF"/>
<rect x="4" y="11" width="1" height="1" fill="#7457FF"/>
<rect x="5" y="11" width="1" height="1" fill="#7457FF"/>
<rect x="6" y="11" width="1" height="1" fill="#7457FF"/>
<rect x="7" y="11" width="1" height="1" fill="#7457FF"/>
<rect x="8" y="11" width="1" height="1" fill="#7457FF"/>
<rect x="9" y="11" width="1" height="1" fill="#7457FF"/>
<rect x="10" y="11" width="1" height="1" fill="#7457FF"/>
<rect x="11" y="11" width="1" height="1" fill="#7457FF"/>
<rect x="12" y="11" width="1" height="1" fill="#7457FF"/>
<rect x="13" y="11" width="1" height="1" fill="black"/>
<rect y="12" width="1" height="1" fill="black"/>
<rect x="1" y="12" width="1" height="1" fill="#533CC2"/>
<rect x="2" y="12" width="1" height="1" fill="#7D54FF"/>
<rect x="3" y="12" width="1" height="1" fill="#7D54FF"/>
<rect x="4" y="12" width="1" height="1" fill="#7D54FF"/>
<rect x="5" y="12" width="1" height="1" fill="#7D54FF"/>
<rect x="6" y="12" width="1" height="1" fill="#7D54FF"/>
<rect x="7" y="12" width="1" height="1" fill="#7D54FF"/>
<rect x="8" y="12" width="1" height="1" fill="#7D54FF"/>
<rect x="9" y="12" width="1" height="1" fill="#7D54FF"/>
<rect x="10" y="12" width="1" height="1" fill="#7D54FF"/>
<rect x="11" y="12" width="1" height="1" fill="#7D54FF"/>
<rect x="12" y="12" width="1" height="1" fill="#7D54FF"/>
<rect x="13" y="12" width="1" height="1" fill="black"/>
<rect x="1" y="13" width="1" height="1" fill="black"/>
<rect x="2" y="13" width="1" height="1" fill="#533CC2"/>
<rect x="3" y="13" width="1" height="1" fill="#7D54FF"/>
<rect x="4" y="13" width="1" height="1" fill="#7D54FF"/>
<rect x="5" y="13" width="1" height="1" fill="#7D54FF"/>
<rect x="6" y="13" width="1" height="1" fill="#7D54FF"/>
<rect x="7" y="13" width="1" height="1" fill="#7D54FF"/>
<rect x="8" y="13" width="1" height="1" fill="#7D54FF"/>
<rect x="9" y="13" width="1" height="1" fill="#7D54FF"/>
<rect x="10" y="13" width="1" height="1" fill="#7D54FF"/>
<rect x="11" y="13" width="1" height="1" fill="#7D54FF"/>
<rect x="12" y="13" width="1" height="1" fill="black"/>
<rect x="1" y="14" width="1" height="1" fill="black"/>
<rect x="2" y="14" width="1" height="1" fill="#533CC2"/>
<rect x="3" y="14" width="1" height="1" fill="#7D54FF"/>
<rect x="4" y="14" width="1" height="1" fill="#7D54FF"/>
<rect x="5" y="14" width="1" height="1" fill="#7D54FF"/>
<rect x="6" y="14" width="1" height="1" fill="#7D54FF"/>
<rect x="7" y="14" width="1" height="1" fill="#7D54FF"/>
<rect x="8" y="14" width="1" height="1" fill="#7D54FF"/>
<rect x="9" y="14" width="1" height="1" fill="#7D54FF"/>
<rect x="10" y="14" width="1" height="1" fill="#7D54FF"/>
<rect x="11" y="14" width="1" height="1" fill="#7D54FF"/>
<rect x="12" y="14" width="1" height="1" fill="black"/>
<rect x="2" y="15" width="1" height="1" fill="black"/>
<rect x="3" y="15" width="1" height="1" fill="#533CC2"/>
<rect x="4" y="15" width="1" height="1" fill="#533CC2"/>
<rect x="5" y="15" width="1" height="1" fill="#8250FE"/>
<rect x="6" y="15" width="1" height="1" fill="#8250FE"/>
<rect x="7" y="15" width="1" height="1" fill="#8250FE"/>
<rect x="8" y="15" width="1" height="1" fill="#8250FE"/>
<rect x="9" y="15" width="1" height="1" fill="#533CC2"/>
<rect x="10" y="15" width="1" height="1" fill="#533CC2"/>
<rect x="11" y="15" width="1" height="1" fill="black"/>
<rect x="3" y="16" width="1" height="1" fill="black"/>
<rect x="4" y="16" width="1" height="1" fill="black"/>
<rect x="5" y="16" width="1" height="1" fill="#533CC2"/>
<rect x="6" y="16" width="1" height="1" fill="#533CC2"/>
<rect x="7" y="16" width="1" height="1" fill="#533CC2"/>
<rect x="8" y="16" width="1" height="1" fill="#533CC2"/>
<rect x="9" y="16" width="1" height="1" fill="black"/>
<rect x="10" y="16" width="1" height="1" fill="black"/>
<rect x="5" y="17" width="1" height="1" fill="black"/>
<rect x="6" y="17" width="1" height="1" fill="black"/>
<rect x="7" y="17" width="1" height="1" fill="black"/>
<rect x="8" y="17" width="1" height="1" fill="black"/>
</svg>
